<?xml version="1.0" encoding="UTF-8" standalone="no"?><svg xmlns="http://www.w3.org/2000/svg" xmlns:xlink="http://www.w3.org/1999/xlink" contentScriptType="application/ecmascript" contentStyleType="text/css" height="583px" preserveAspectRatio="none" style="width:891px;height:583px;" version="1.1" viewBox="0 0 891 583" width="891px" zoomAndPan="magnify"><defs><filter height="300%" id="f6efmp0" width="300%" x="-1" y="-1"><feGaussianBlur result="blurOut" stdDeviation="2.0"/><feColorMatrix in="blurOut" result="blurOut2" type="matrix" values="0 0 0 0 0 0 0 0 0 0 0 0 0 0 0 0 0 0 .4 0"/><feOffset dx="4.0" dy="4.0" in="blurOut2" result="blurOut3"/><feBlend in="SourceGraphic" in2="blurOut3" mode="normal"/></filter></defs><g><!--cluster ##2--><path d="M302,31 C302,28 304,26 307,26 C310,26 312,28 312,31 C312,28 314,26 317,26 C320,26 322,28 322,31 C322,28 324,26 327,26 C330,26 332,28 332,31 C332,28 334,26 337,26 C340,26 342,28 342,31 C342,28 344,26 347,26 C350,26 352,28 352,31 C352,28 354,26 357,26 C360,26 362,28 362,31 C362,28 364,26 367,26 C370,26 372,28 372,31 C372,28 374,26 377,26 C380,26 382,28 382,31 C382,28 384,26 387,26 C390,26 392,28 392,31 C392,28 394,26 397,26 C400,26 402,28 402,31 C405,31 407,33 407,36 C407,39 405,41 402,41 C405,41 407,43 407,46 C407,49 405,51 402,51 C405,51 407,53 407,56 C407,59 405,61 402,61 C405,61 407,63 407,66 C407,69 405,71 402,71 C405,71 407,73 407,76 C407,79 405,81 402,81 C402,84 399,86 397,86 C394,86 392,84 392,81 C392,84 389,86 387,86 C384,86 382,84 382,81 C382,84 379,86 377,86 C374,86 372,84 372,81 C372,84 369,86 367,86 C364,86 362,84 362,81 C362,84 359,86 357,86 C354,86 352,84 352,81 C352,84 349,86 347,86 C344,86 342,84 342,81 C342,84 339,86 337,86 C334,86 332,84 332,81 C332,84 329,86 327,86 C324,86 322,84 322,81 C322,84 319,86 317,86 C314,86 312,84 312,81 C312,84 309,86 307,86 C304,86 302,84 302,81 C299,81 297,79 297,76 C297,73 299,71 302,71 C299,71 297,69 297,66 C297,63 299,61 302,61 C299,61 297,59 297,56 C297,53 299,51 302,51 C299,51 297,49 297,46 C297,43 299,41 302,41 C299,41 297,39 297,36 C297,33 299,31 302,31 " fill="#D3D3D3" filter="url(#f6efmp0)" style="stroke: #000000; stroke-width: 2.0;"/><!--cluster Backend--><rect fill="#D3D3D3" filter="url(#f6efmp0)" height="354" style="stroke: #000000; stroke-width: 2.0;" width="862" x="22" y="222"/><path d="M91,223 L91,231.4883 L81,241.4883 L22,241.4883 " fill="none" style="stroke: #000000; stroke-width: 2.0;"/><text fill="#000000" font-family="sans-serif" font-size="14" font-weight="bold" lengthAdjust="spacingAndGlyphs" textLength="59" x="25" y="236.5352">Backend</text><!--entity Browser--><rect fill="#ADD8E6" filter="url(#f6efmp0)" height="36.4883" style="stroke: #A80036; stroke-width: 1.5;" width="75" x="315.75" y="40"/><rect fill="#ADD8E6" height="5" style="stroke: #A80036; stroke-width: 1.5;" width="10" x="310.75" y="45"/><rect fill="#ADD8E6" height="5" style="stroke: #A80036; stroke-width: 1.5;" width="10" x="310.75" y="66.4883"/><text fill="#000000" font-family="sans-serif" font-size="14" lengthAdjust="spacingAndGlyphs" textLength="55" x="325.75" y="63.5352">Browser</text><!--entity nginx--><rect fill="#90EE90" filter="url(#f6efmp0)" height="52.9766" style="stroke: #A80036; stroke-width: 1.5;" width="113" x="393.75" y="258.5"/><rect fill="#90EE90" height="5" style="stroke: #A80036; stroke-width: 1.5;" width="10" x="388.75" y="263.5"/><rect fill="#90EE90" height="5" style="stroke: #A80036; stroke-width: 1.5;" width="10" x="388.75" y="301.4766"/><text fill="#000000" font-family="sans-serif" font-size="14" font-style="italic" lengthAdjust="spacingAndGlyphs" textLength="93" x="403.75" y="282.0352">«HTTP Proxy»</text><text fill="#000000" font-family="sans-serif" font-size="14" lengthAdjust="spacingAndGlyphs" textLength="40" x="430.25" y="298.5234">nginx</text><!--entity demo-site--><rect fill="#FFFF00" filter="url(#f6efmp0)" height="52.9766" style="stroke: #A80036; stroke-width: 1.5;" width="109" x="81.75" y="258.5"/><rect fill="#FFFF00" height="5" style="stroke: #A80036; stroke-width: 1.5;" width="10" x="76.75" y="263.5"/><rect fill="#FFFF00" height="5" style="stroke: #A80036; stroke-width: 1.5;" width="10" x="76.75" y="301.4766"/><text fill="#000000" font-family="sans-serif" font-size="14" font-style="italic" lengthAdjust="spacingAndGlyphs" textLength="89" x="91.75" y="282.0352">«Web server»</text><text fill="#000000" font-family="sans-serif" font-size="14" lengthAdjust="spacingAndGlyphs" textLength="71" x="100.75" y="298.5234">demo-site</text><!--entity github-proxy--><rect fill="#FFA500" filter="url(#f6efmp0)" height="52.9766" style="stroke: #A80036; stroke-width: 1.5;" width="114" x="710" y="258.5"/><rect fill="#FFA500" height="5" style="stroke: #A80036; stroke-width: 1.5;" width="10" x="705" y="263.5"/><rect fill="#FFA500" height="5" style="stroke: #A80036; stroke-width: 1.5;" width="10" x="705" y="301.4766"/><text fill="#000000" font-family="sans-serif" font-size="14" font-style="italic" lengthAdjust="spacingAndGlyphs" textLength="94" x="720" y="282.0352">«REST server»</text><text fill="#000000" font-family="sans-serif" font-size="14" lengthAdjust="spacingAndGlyphs" textLength="93" x="720.5" y="298.5234">github-proxy</text><!--entity dockerhub-proxy--><rect fill="#FFA500" filter="url(#f6efmp0)" height="52.9766" style="stroke: #A80036; stroke-width: 1.5;" width="142" x="320" y="390.5"/><rect fill="#FFA500" height="5" style="stroke: #A80036; stroke-width: 1.5;" width="10" x="315" y="395.5"/><rect fill="#FFA500" height="5" style="stroke: #A80036; stroke-width: 1.5;" width="10" x="315" y="433.4766"/><text fill="#000000" font-family="sans-serif" font-size="14" font-style="italic" lengthAdjust="spacingAndGlyphs" textLength="94" x="344" y="414.0352">«REST server»</text><text fill="#000000" font-family="sans-serif" font-size="14" lengthAdjust="spacingAndGlyphs" textLength="122" x="330" y="430.5234">dockerhub-proxy</text><!--entity googleplay-proxy--><rect fill="#FFA500" filter="url(#f6efmp0)" height="52.9766" style="stroke: #A80036; stroke-width: 1.5;" width="144" x="513" y="390.5"/><rect fill="#FFA500" height="5" style="stroke: #A80036; stroke-width: 1.5;" width="10" x="508" y="395.5"/><rect fill="#FFA500" height="5" style="stroke: #A80036; stroke-width: 1.5;" width="10" x="508" y="433.4766"/><text fill="#000000" font-family="sans-serif" font-size="14" font-style="italic" lengthAdjust="spacingAndGlyphs" textLength="94" x="538" y="414.0352">«REST server»</text><text fill="#000000" font-family="sans-serif" font-size="14" lengthAdjust="spacingAndGlyphs" textLength="124" x="523" y="430.5234">googleplay-proxy</text><!--entity nginx-pygen--><rect fill="#FFC0CB" filter="url(#f6efmp0)" height="52.9766" style="stroke: #A80036; stroke-width: 1.5;" width="199" x="668.75" y="506.5"/><rect fill="#FFC0CB" height="5" style="stroke: #A80036; stroke-width: 1.5;" width="10" x="663.75" y="511.5"/><rect fill="#FFC0CB" height="5" style="stroke: #A80036; stroke-width: 1.5;" width="10" x="663.75" y="549.4766"/><text fill="#000000" font-family="sans-serif" font-size="14" font-style="italic" lengthAdjust="spacingAndGlyphs" textLength="179" x="678.75" y="530.0352">«configuration generator»</text><text fill="#000000" font-family="sans-serif" font-size="14" lengthAdjust="spacingAndGlyphs" textLength="90" x="723.25" y="546.5234">nginx-pygen</text><!--entity certbot-pygen--><rect fill="#FFC0CB" filter="url(#f6efmp0)" height="52.9766" style="stroke: #A80036; stroke-width: 1.5;" width="199" x="434.75" y="506.5"/><rect fill="#FFC0CB" height="5" style="stroke: #A80036; stroke-width: 1.5;" width="10" x="429.75" y="511.5"/><rect fill="#FFC0CB" height="5" style="stroke: #A80036; stroke-width: 1.5;" width="10" x="429.75" y="549.4766"/><text fill="#000000" font-family="sans-serif" font-size="14" font-style="italic" lengthAdjust="spacingAndGlyphs" textLength="179" x="444.75" y="530.0352">«configuration generator»</text><text fill="#000000" font-family="sans-serif" font-size="14" lengthAdjust="spacingAndGlyphs" textLength="99" x="484.75" y="546.5234">certbot-pygen</text><!--entity certbot-helper--><rect fill="#CC9999" filter="url(#f6efmp0)" height="52.9766" style="stroke: #A80036; stroke-width: 1.5;" width="193" x="38.75" y="506.5"/><rect fill="#CC9999" height="5" style="stroke: #A80036; stroke-width: 1.5;" width="10" x="33.75" y="511.5"/><rect fill="#CC9999" height="5" style="stroke: #A80036; stroke-width: 1.5;" width="10" x="33.75" y="549.4766"/><text fill="#000000" font-family="sans-serif" font-size="14" font-style="italic" lengthAdjust="spacingAndGlyphs" textLength="173" x="48.75" y="530.0352">«SSL certificate manager»</text><text fill="#000000" font-family="sans-serif" font-size="14" lengthAdjust="spacingAndGlyphs" textLength="101" x="84.75" y="546.5234">certbot-helper</text><path d="M361.109,76.305 C368.722,92.654 380.35,117.897 390,140 C407.005,178.95 425.707,224.255 437.636,253.49 " fill="none" style="stroke: #A80036; stroke-width: 2.0;"/><polygon fill="#A80036" points="439.637,258.398,439.9415,248.5539,437.7486,253.7683,432.5341,251.5753,439.637,258.398" style="stroke: #A80036; stroke-width: 1.0;"/><text fill="#000000" font-family="sans-serif" font-size="13" font-weight="bold" lengthAdjust="spacingAndGlyphs" textLength="16" x="406" y="161.5684">all</text><text fill="#000000" font-family="sans-serif" font-size="13" lengthAdjust="spacingAndGlyphs" textLength="0" x="426" y="161.5684"/><text fill="#000000" font-family="sans-serif" font-size="13" font-style="italic" lengthAdjust="spacingAndGlyphs" textLength="156" x="426" y="161.5684">https://*.viktoradam.net</text><text fill="#000000" font-family="sans-serif" font-size="13" lengthAdjust="spacingAndGlyphs" textLength="54" x="586" y="161.5684">requests</text><path d="M195.415,285 C252.388,285 337.771,285 393.685,285 " fill="none" style="stroke: #A80036; stroke-width: 2.0;"/><polygon fill="#A80036" points="190.336,285,199.336,289,195.336,285,199.336,281,190.336,285" style="stroke: #A80036; stroke-width: 1.0;"/><text fill="#000000" font-family="sans-serif" font-size="13" font-style="italic" lengthAdjust="spacingAndGlyphs" textLength="39" x="224.25" y="277.5684">demo.</text><text fill="#000000" font-family="sans-serif" font-size="13" lengthAdjust="spacingAndGlyphs" textLength="95" x="263.25" y="277.5684">viktoradam.net</text><path d="M506.308,285 C562.005,285 647.051,285 704.734,285 " fill="none" style="stroke: #A80036; stroke-width: 2.0;"/><polygon fill="#A80036" points="709.881,285,700.881,281,704.881,285,700.881,289,709.881,285" style="stroke: #A80036; stroke-width: 1.0;"/><text fill="#000000" font-family="sans-serif" font-size="13" font-style="italic" lengthAdjust="spacingAndGlyphs" textLength="23" x="524.5" y="277.5684">api.</text><text fill="#000000" font-family="sans-serif" font-size="13" lengthAdjust="spacingAndGlyphs" textLength="102" x="547.5" y="277.5684">viktoradam.net/</text><text fill="#000000" font-family="sans-serif" font-size="13" font-style="italic" lengthAdjust="spacingAndGlyphs" textLength="41" x="649.5" y="277.5684">github</text><path d="M398.488,311.77 C387.458,319.855 377.253,329.903 371,342 C363.972,355.596 367.295,371.909 373.086,385.756 " fill="none" style="stroke: #A80036; stroke-width: 2.0;"/><polygon fill="#A80036" points="375.134,390.349,375.1223,380.5001,373.0979,385.7824,367.8157,383.758,375.134,390.349" style="stroke: #A80036; stroke-width: 1.0;"/><text fill="#000000" font-family="sans-serif" font-size="13" font-style="italic" lengthAdjust="spacingAndGlyphs" textLength="23" x="372" y="355.5684">api.</text><text fill="#000000" font-family="sans-serif" font-size="13" lengthAdjust="spacingAndGlyphs" textLength="102" x="395" y="355.5684">viktoradam.net/</text><text fill="#000000" font-family="sans-serif" font-size="13" font-style="italic" lengthAdjust="spacingAndGlyphs" textLength="43" x="497" y="355.5684">docker</text><path d="M506.092,311.725 C520.26,320.003 534.655,330.156 546,342 C557.913,354.437 567.158,371.232 573.651,385.678 " fill="none" style="stroke: #A80036; stroke-width: 2.0;"/><polygon fill="#A80036" points="575.747,390.478,575.8096,380.6293,573.7454,385.8961,568.4786,383.8319,575.747,390.478" style="stroke: #A80036; stroke-width: 1.0;"/><text fill="#000000" font-family="sans-serif" font-size="13" font-style="italic" lengthAdjust="spacingAndGlyphs" textLength="23" x="559" y="355.5684">api.</text><text fill="#000000" font-family="sans-serif" font-size="13" lengthAdjust="spacingAndGlyphs" textLength="102" x="582" y="355.5684">viktoradam.net/</text><text fill="#000000" font-family="sans-serif" font-size="13" font-style="italic" lengthAdjust="spacingAndGlyphs" textLength="34" x="684" y="355.5684">gplay</text><path d="M511.524,290.603 C583.919,297.309 698.08,312.34 728,342 C772.288,385.904 773.455,465.577 770.696,506.3937 " fill="none" style="stroke: #A80036; stroke-width: 1.0;"/><polygon fill="#A80036" points="506.385,290.135,514.9858,294.9336,511.3645,290.5878,515.7103,286.9665,506.385,290.135" style="stroke: #A80036; stroke-width: 1.0;"/><text fill="#000000" font-family="sans-serif" font-size="13" lengthAdjust="spacingAndGlyphs" textLength="112" x="770" y="421.5684">Configure routing</text><path d="M388.261,289.06 C319.189,296.046 209.467,318.511 152,390 C125.4,423.091 126.751,475.333 130.58,506.3759 " fill="none" style="stroke: #A80036; stroke-width: 1.0;"/><polygon fill="#A80036" points="393.575,288.544,384.2308,285.4317,388.5984,289.0268,385.0033,293.3944,393.575,288.544" style="stroke: #A80036; stroke-width: 1.0;"/><text fill="#000000" font-family="sans-serif" font-size="13" lengthAdjust="spacingAndGlyphs" textLength="147" x="153" y="421.5684">Manage SSL certificates</text><path d="M236.423,533 C297.25,533 374.269,533 434.711,533 " fill="none" style="stroke: #A80036; stroke-width: 1.0;"/><polygon fill="#A80036" points="231.332,533,240.332,537,236.332,533,240.332,529,231.332,533" style="stroke: #A80036; stroke-width: 1.0;"/><text fill="#000000" font-family="sans-serif" font-size="13" lengthAdjust="spacingAndGlyphs" textLength="165" x="249.75" y="525.5684">Configure secure domains</text><path d="M315.717,60.427 C264.616,64.629 174.444,80.577 133,140 C109.849,173.193 117.169,221.97 125.686,253.36 " fill="none" style="stroke: #A80036; stroke-width: 1.0; stroke-dasharray: 7.0,7.0;"/><polygon fill="#A80036" points="127.058,258.244,128.4741,248.4975,125.7053,253.4304,120.7724,250.6617,127.058,258.244" style="stroke: #A80036; stroke-width: 1.0;"/><text fill="#000000" font-family="sans-serif" font-size="13" lengthAdjust="spacingAndGlyphs" textLength="72" x="134" y="154.0684">HTTP GET /</text><text fill="#000000" font-family="sans-serif" font-size="13" lengthAdjust="spacingAndGlyphs" textLength="58" x="145" y="169.3789">-&gt; HTML</text><path d="M329.77,76.188 C309.22,91.85 278.879,116.119 255,140 C218.28,176.723 180.939,223.844 158.12,253.988 " fill="none" style="stroke: #A80036; stroke-width: 1.0; stroke-dasharray: 7.0,7.0;"/><polygon fill="#A80036" points="154.86,258.309,163.4729,253.5321,157.8707,254.3171,157.0858,248.7149,154.86,258.309" style="stroke: #A80036; stroke-width: 1.0;"/><text fill="#000000" font-family="sans-serif" font-size="13" lengthAdjust="spacingAndGlyphs" textLength="120" x="256" y="154.0684">HTTP POST /render</text><text fill="#000000" font-family="sans-serif" font-size="13" lengthAdjust="spacingAndGlyphs" textLength="93" x="273.5" y="169.3789">JSON -&gt; HTML</text><path d="M390.711,61.88 C450.22,67.963 567.6,86.324 650,140 C694.816,169.194 730.717,221.097 750.414,253.969 " fill="none" style="stroke: #A80036; stroke-width: 1.0; stroke-dasharray: 7.0,7.0;"/><polygon fill="#A80036" points="752.969,258.278,751.8203,248.4964,750.4192,253.977,744.9386,252.576,752.969,258.278" style="stroke: #A80036; stroke-width: 1.0;"/><text fill="#000000" font-family="sans-serif" font-size="13" lengthAdjust="spacingAndGlyphs" textLength="71" x="689" y="154.0684">HTTP GET *</text><text fill="#000000" font-family="sans-serif" font-size="13" lengthAdjust="spacingAndGlyphs" textLength="53" x="702" y="169.3789">-&gt; JSON</text></g></svg>