<?xml version="1.0" encoding="UTF-8" standalone="no"?><svg xmlns="http://www.w3.org/2000/svg" xmlns:xlink="http://www.w3.org/1999/xlink" contentScriptType="application/ecmascript" contentStyleType="text/css" height="474px" preserveAspectRatio="none" style="width:688px;height:474px;" version="1.1" viewBox="0 0 688 474" width="688px" zoomAndPan="magnify"><defs><filter height="300%" id="fgcpiwolxi46h" width="300%" x="-1" y="-1"><feGaussianBlur result="blurOut" stdDeviation="2.0"/><feColorMatrix in="blurOut" result="blurOut2" type="matrix" values="0 0 0 0 0 0 0 0 0 0 0 0 0 0 0 0 0 0 .4 0"/><feOffset dx="4.0" dy="4.0" in="blurOut2" result="blurOut3"/><feBlend in="SourceGraphic" in2="blurOut3" mode="normal"/></filter></defs><g><!--cluster ##9640--><path d="M178.539,31 C178.539,28 180.539,26 183.539,26 C186.539,26 188.539,28 188.539,31 C188.539,28 190.539,26 193.539,26 C196.539,26 198.539,28 198.539,31 C198.539,28 200.539,26 203.539,26 C206.539,26 208.539,28 208.539,31 C208.539,28 210.539,26 213.539,26 C216.539,26 218.539,28 218.539,31 C218.539,28 220.539,26 223.539,26 C226.539,26 228.539,28 228.539,31 C228.539,28 230.539,26 233.539,26 C236.539,26 238.539,28 238.539,31 C238.539,28 240.539,26 243.539,26 C246.539,26 248.539,28 248.539,31 C248.539,28 250.539,26 253.539,26 C256.539,26 258.539,28 258.539,31 C258.539,28 260.539,26 263.539,26 C266.539,26 268.539,28 268.539,31 C268.539,28 270.539,26 273.539,26 C276.539,26 278.539,28 278.539,31 C278.539,28 280.539,26 283.539,26 C286.539,26 288.539,28 288.539,31 C291.539,31 293.539,33 293.539,36 C293.539,39 291.539,41 288.539,41 C291.539,41 293.539,43 293.539,46 C293.539,49 291.539,51 288.539,51 C291.539,51 293.539,53 293.539,56 C293.539,59 291.539,61 288.539,61 C291.539,61 293.539,63 293.539,66 C293.539,69 291.539,71 288.539,71 C291.539,71 293.539,73 293.539,76 C293.539,79 291.539,81 288.539,81 C288.539,84 285.539,86 283.539,86 C280.539,86 278.539,84 278.539,81 C278.539,84 275.539,86 273.539,86 C270.539,86 268.539,84 268.539,81 C268.539,84 265.539,86 263.539,86 C260.539,86 258.539,84 258.539,81 C258.539,84 255.539,86 253.539,86 C250.539,86 248.539,84 248.539,81 C248.539,84 245.539,86 243.539,86 C240.539,86 238.539,84 238.539,81 C238.539,84 235.539,86 233.539,86 C230.539,86 228.539,84 228.539,81 C228.539,84 225.539,86 223.539,86 C220.539,86 218.539,84 218.539,81 C218.539,84 215.539,86 213.539,86 C210.539,86 208.539,84 208.539,81 C208.539,84 205.539,86 203.539,86 C200.539,86 198.539,84 198.539,81 C198.539,84 195.539,86 193.539,86 C190.539,86 188.539,84 188.539,81 C188.539,84 185.539,86 183.539,86 C180.539,86 178.539,84 178.539,81 C175.539,81 173.539,79 173.539,76 C173.539,73 175.539,71 178.539,71 C175.539,71 173.539,69 173.539,66 C173.539,63 175.539,61 178.539,61 C175.539,61 173.539,59 173.539,56 C173.539,53 175.539,51 178.539,51 C175.539,51 173.539,49 173.539,46 C173.539,43 175.539,41 178.539,41 C175.539,41 173.539,39 173.539,36 C173.539,33 175.539,31 178.539,31 " fill="#D3D3D3" filter="url(#fgcpiwolxi46h)" style="stroke: #000000; stroke-width: 2.0;"/><!--cluster Backend--><rect fill="#D3D3D3" filter="url(#fgcpiwolxi46h)" height="249" style="stroke: #000000; stroke-width: 2.0;" width="654.0002" x="27.5388" y="218"/><path d="M104.5388,219 L104.5388,227.2969 L94.5388,237.2969 L27.5388,237.2969 " fill="none" style="stroke: #000000; stroke-width: 2.0;"/><text fill="#000000" font-family="sans-serif" font-size="14" font-weight="bold" lengthAdjust="spacingAndGlyphs" textLength="67" x="30.5388" y="231.9951">Backend</text><!--entity Browser--><rect fill="#ADD8E6" filter="url(#fgcpiwolxi46h)" height="36.2969" style="stroke: #A80036; stroke-width: 1.5;" width="77" x="192.039" y="40"/><rect fill="#ADD8E6" height="5" style="stroke: #A80036; stroke-width: 1.5;" width="10" x="187.039" y="45"/><rect fill="#ADD8E6" height="5" style="stroke: #A80036; stroke-width: 1.5;" width="10" x="187.039" y="66.2969"/><text fill="#000000" font-family="sans-serif" font-size="14" lengthAdjust="spacingAndGlyphs" textLength="57" x="202.039" y="62.9951">Browser</text><!--entity nginx--><rect fill="#90EE90" filter="url(#fgcpiwolxi46h)" height="52.5938" style="stroke: #A80036; stroke-width: 1.5;" width="116" x="293.539" y="253"/><rect fill="#90EE90" height="5" style="stroke: #A80036; stroke-width: 1.5;" width="10" x="288.539" y="258"/><rect fill="#90EE90" height="5" style="stroke: #A80036; stroke-width: 1.5;" width="10" x="288.539" y="295.5938"/><text fill="#000000" font-family="sans-serif" font-size="14" font-style="italic" lengthAdjust="spacingAndGlyphs" textLength="96" x="303.539" y="275.9951">«HTTP Proxy»</text><text fill="#000000" font-family="sans-serif" font-size="14" lengthAdjust="spacingAndGlyphs" textLength="37" x="333.039" y="292.292">nginx</text><!--entity demo-site--><rect fill="#FFFF00" filter="url(#fgcpiwolxi46h)" height="52.5938" style="stroke: #A80036; stroke-width: 1.5;" width="116" x="43.5388" y="253"/><rect fill="#FFFF00" height="5" style="stroke: #A80036; stroke-width: 1.5;" width="10" x="38.5388" y="258"/><rect fill="#FFFF00" height="5" style="stroke: #A80036; stroke-width: 1.5;" width="10" x="38.5388" y="295.5938"/><text fill="#000000" font-family="sans-serif" font-size="14" font-style="italic" lengthAdjust="spacingAndGlyphs" textLength="96" x="53.5388" y="275.9951">«Web server»</text><text fill="#000000" font-family="sans-serif" font-size="14" lengthAdjust="spacingAndGlyphs" textLength="70" x="66.5388" y="292.292">demo-site</text><!--entity github-proxy--><rect fill="#FFA500" filter="url(#fgcpiwolxi46h)" height="52.5938" style="stroke: #A80036; stroke-width: 1.5;" width="122" x="543.539" y="253"/><rect fill="#FFA500" height="5" style="stroke: #A80036; stroke-width: 1.5;" width="10" x="538.539" y="258"/><rect fill="#FFA500" height="5" style="stroke: #A80036; stroke-width: 1.5;" width="10" x="538.539" y="295.5938"/><text fill="#000000" font-family="sans-serif" font-size="14" font-style="italic" lengthAdjust="spacingAndGlyphs" textLength="102" x="553.539" y="275.9951">«REST server»</text><text fill="#000000" font-family="sans-serif" font-size="14" lengthAdjust="spacingAndGlyphs" textLength="86" x="561.539" y="292.292">github-proxy</text><!--entity dockerhub-proxy--><rect fill="#FFA500" filter="url(#fgcpiwolxi46h)" height="52.5938" style="stroke: #A80036; stroke-width: 1.5;" width="137" x="205.039" y="398"/><rect fill="#FFA500" height="5" style="stroke: #A80036; stroke-width: 1.5;" width="10" x="200.039" y="403"/><rect fill="#FFA500" height="5" style="stroke: #A80036; stroke-width: 1.5;" width="10" x="200.039" y="440.5938"/><text fill="#000000" font-family="sans-serif" font-size="14" font-style="italic" lengthAdjust="spacingAndGlyphs" textLength="102" x="222.539" y="420.9951">«REST server»</text><text fill="#000000" font-family="sans-serif" font-size="14" lengthAdjust="spacingAndGlyphs" textLength="117" x="215.039" y="437.292">dockerhub-proxy</text><!--entity googleplay-proxy--><rect fill="#FFA500" filter="url(#fgcpiwolxi46h)" height="52.5938" style="stroke: #A80036; stroke-width: 1.5;" width="137" x="377.039" y="398"/><rect fill="#FFA500" height="5" style="stroke: #A80036; stroke-width: 1.5;" width="10" x="372.039" y="403"/><rect fill="#FFA500" height="5" style="stroke: #A80036; stroke-width: 1.5;" width="10" x="372.039" y="440.5938"/><text fill="#000000" font-family="sans-serif" font-size="14" font-style="italic" lengthAdjust="spacingAndGlyphs" textLength="102" x="394.539" y="420.9951">«REST server»</text><text fill="#000000" font-family="sans-serif" font-size="14" lengthAdjust="spacingAndGlyphs" textLength="117" x="387.039" y="437.292">googleplay-proxy</text><!--link Browser to nginx--><path d="M240.033,76.224 C260.543,113.428 309.203,201.7 334.931,248.372 " fill="none" id="Browser-nginx" style="stroke: #A80036; stroke-width: 2.0;"/><polygon fill="#A80036" points="337.347,252.756,336.5066,242.9431,334.9338,248.3769,329.5,246.8041,337.347,252.756" style="stroke: #A80036; stroke-width: 1.0;"/><text fill="#000000" font-family="sans-serif" font-size="13" font-weight="bold" lengthAdjust="spacingAndGlyphs" textLength="17" x="292.539" y="159.5669">all</text><text fill="#000000" font-family="sans-serif" font-size="13" lengthAdjust="spacingAndGlyphs" textLength="0" x="313.539" y="159.5669"/><text fill="#000000" font-family="sans-serif" font-size="13" font-style="italic" lengthAdjust="spacingAndGlyphs" textLength="146" x="313.539" y="159.5669">http://*.viktoradam.net</text><text fill="#000000" font-family="sans-serif" font-size="13" lengthAdjust="spacingAndGlyphs" textLength="56" x="463.539" y="159.5669">requests</text><!--link demo-site to nginx--><path d="M165.077,279.5 C204.485,279.5 254.742,279.5 293.148,279.5 " fill="none" id="demo-site-nginx" style="stroke: #A80036; stroke-width: 1.0;"/><polygon fill="#A80036" points="159.837,279.5,168.837,283.5,164.837,279.5,168.837,275.5,159.837,279.5" style="stroke: #A80036; stroke-width: 1.0;"/><text fill="#000000" font-family="sans-serif" font-size="13" font-style="italic" lengthAdjust="spacingAndGlyphs" textLength="41" x="206.039" y="257.5669">demo.</text><text fill="#000000" font-family="sans-serif" font-size="13" lengthAdjust="spacingAndGlyphs" textLength="97" x="178.039" y="272.6997">viktoradam.net</text><!--link nginx to github-proxy--><path d="M409.582,279.5 C447.838,279.5 498.046,279.5 537.929,279.5 " fill="none" id="nginx-github-proxy" style="stroke: #A80036; stroke-width: 1.0;"/><polygon fill="#A80036" points="543.237,279.5,534.237,275.5,538.237,279.5,534.237,283.5,543.237,279.5" style="stroke: #A80036; stroke-width: 1.0;"/><text fill="#000000" font-family="sans-serif" font-size="13" font-style="italic" lengthAdjust="spacingAndGlyphs" textLength="67" x="443.039" y="257.5669">github.api.</text><text fill="#000000" font-family="sans-serif" font-size="13" lengthAdjust="spacingAndGlyphs" textLength="97" x="428.039" y="272.6997">viktoradam.net</text><!--link nginx to dockerhub-proxy--><path d="M313.154,306.221 C303.357,314.596 293.829,324.689 287.539,336 C277.985,353.18 274.48,375.01 273.367,392.567 " fill="none" id="nginx-dockerhub-proxy" style="stroke: #A80036; stroke-width: 1.0;"/><polygon fill="#A80036" points="273.094,397.8688,277.5516,389.0864,273.3512,392.8754,269.5622,388.675,273.094,397.8688" style="stroke: #A80036; stroke-width: 1.0;"/><text fill="#000000" font-family="sans-serif" font-size="13" font-style="italic" lengthAdjust="spacingAndGlyphs" textLength="70" x="302.039" y="349.0669">docker.api.</text><text fill="#000000" font-family="sans-serif" font-size="13" lengthAdjust="spacingAndGlyphs" textLength="97" x="288.539" y="364.1997">viktoradam.net</text><!--link nginx to googleplay-proxy--><path d="M369.874,306.008 C376.493,315.368 383.952,326.096 390.539,336 C402.981,354.71 416.411,376.052 426.885,392.9753 " fill="none" id="nginx-googleplay-proxy" style="stroke: #A80036; stroke-width: 1.0;"/><polygon fill="#A80036" points="429.758,397.6253,428.4314,387.8662,427.1304,393.3714,421.6252,392.0704,429.758,397.6253" style="stroke: #A80036; stroke-width: 1.0;"/><text fill="#000000" font-family="sans-serif" font-size="13" font-style="italic" lengthAdjust="spacingAndGlyphs" textLength="61" x="429.539" y="349.0669">gplay.api.</text><text fill="#000000" font-family="sans-serif" font-size="13" lengthAdjust="spacingAndGlyphs" textLength="97" x="411.539" y="364.1997">viktoradam.net</text><!--link Browser to demo-site--><path d="M191.789,60.669 C141.268,65.175 54.6309,81.397 14.5388,139 C-11.3142,176.144 28.2303,220.79 62.0811,249.396 " fill="none" id="Browser-demo-site" style="stroke: #A80036; stroke-width: 1.0; stroke-dasharray: 7.0,7.0;"/><polygon fill="#A80036" points="66.1762,252.804,61.8156,243.9731,62.3324,249.6063,56.6992,250.1231,66.1762,252.804" style="stroke: #A80036; stroke-width: 1.0;"/><text fill="#000000" font-family="sans-serif" font-size="13" lengthAdjust="spacingAndGlyphs" textLength="69" x="15.5388" y="152.0669">HTTP GET /</text><text fill="#000000" font-family="sans-serif" font-size="13" lengthAdjust="spacingAndGlyphs" textLength="55" x="26.5388" y="167.1997">-&gt; HTML</text><!--link Browser to demo-site--><path d="M203.925,76.28 C183.709,90.734 156.71,113.114 140.539,139 C119.442,172.77 109.523,218.133 105.025,247.829 " fill="none" id="Browser-demo-site" style="stroke: #A80036; stroke-width: 1.0; stroke-dasharray: 7.0,7.0;"/><polygon fill="#A80036" points="104.2977,252.82,109.5546,244.4914,105.0192,247.8723,101.6383,243.337,104.2977,252.82" style="stroke: #A80036; stroke-width: 1.0;"/><text fill="#000000" font-family="sans-serif" font-size="13" lengthAdjust="spacingAndGlyphs" textLength="120" x="141.539" y="152.0669">HTTP POST /render</text><text fill="#000000" font-family="sans-serif" font-size="13" lengthAdjust="spacingAndGlyphs" textLength="91" x="160.039" y="167.1997">JSON -&gt; HTML</text><!--link Browser to github-proxy--><path d="M269.121,59.925 C330.382,63.289 450.895,77.85 528.539,139 C563.914,166.86 585.079,215.923 595.771,247.814 " fill="none" id="Browser-github-proxy" style="stroke: #A80036; stroke-width: 1.0; stroke-dasharray: 7.0,7.0;"/><polygon fill="#A80036" points="597.398,252.778,598.3963,242.9799,595.8409,248.0266,590.7941,245.4713,597.398,252.778" style="stroke: #A80036; stroke-width: 1.0;"/><text fill="#000000" font-family="sans-serif" font-size="13" lengthAdjust="spacingAndGlyphs" textLength="72" x="558.539" y="152.0669">HTTP GET *</text><text fill="#000000" font-family="sans-serif" font-size="13" lengthAdjust="spacingAndGlyphs" textLength="52" x="572.539" y="167.1997">-&gt; JSON</text><!--
@startuml

cloud #LightGrey {
    [Browser] #LightBlue
}

frame Backend #LightGrey {
    [nginx] << HTTP Proxy >> #LightGreen
    [demo-site] << Web server >> #Yellow
    [github-proxy] << REST server >> #Orange
    [dockerhub-proxy] << REST server >> #Orange
    [googleplay-proxy] << REST server >> #Orange
}

[Browser] =d=> [nginx] : <b>all</b> <i>http://*.viktoradam.net</i> requests

[nginx] -l-> [demo-site] : <i>demo.</i>\nviktoradam.net
[nginx] -r-> [github-proxy] : <i>github.api.</i>\nviktoradam.net
[nginx] -d-> [dockerhub-proxy] : <i>docker.api.</i>\nviktoradam.net
[nginx] -d-> [googleplay-proxy] : <i>gplay.api.</i>\nviktoradam.net

[Browser] ..d.> [demo-site] : HTTP GET / \n -> HTML
[Browser] ..d.> [demo-site] : HTTP POST /render \n JSON -> HTML
[Browser] ..d.> [github-proxy] : HTTP GET * \n -> JSON

@enduml

PlantUML version 1.2017.12(Wed Apr 26 16:06:36 UTC 2017)
(GPL source distribution)
Java Runtime: OpenJDK Runtime Environment
JVM: OpenJDK 64-Bit Server VM
Java Version: 1.8.0_112-release-736-b21
Operating System: Linux
OS Version: 4.9.0-3-amd64
Default Encoding: ANSI_X3.4-1968
Language: en
Country: US
--></g></svg>